<?xml version="1.0" encoding="utf-8"?>
<!-- Svg Vector Icons : http://www.onlinewebfonts.com/icon -->
<!DOCTYPE svg PUBLIC "-//W3C//DTD SVG 1.1//EN" "http://www.w3.org/Graphics/SVG/1.1/DTD/svg11.dtd">
<svg version="1.1" xmlns="http://www.w3.org/2000/svg" xmlns:xlink="http://www.w3.org/1999/xlink" x="0px" y="0px" viewBox="0 0 1000 1000" enable-background="new 0 0 1000 1000" xml:space="preserve">
<metadata> Svg Vector Icons : http://www.onlinewebfonts.com/icon </metadata>
<g><g transform="matrix(1 0 0 -1 0 1920)"><path d="M132.5,930c-5.7,0-10.5,2-14.5,5.9c-3.9,3.9-5.9,8.8-5.9,14.5v939.2c0,5.7,2,10.5,5.9,14.5s8.8,5.9,14.5,5.9h510.4v-224.6c0-5.7,2-10.5,5.9-14.5c3.9-3.9,8.8-5.9,14.5-5.9h224.6v-285.8H316.3c-7.3,0-14.2-1.8-20.4-5.5c-6.3-3.7-11.2-8.6-14.9-14.9c-3.7-6.3-5.5-13.1-5.5-20.4v-204.2c0-11.2,4-20.8,12-28.8c8-8,17.6-12,28.8-12h571.7V950.4c0-5.7-2-10.5-5.9-14.5c-3.9-3.9-8.8-5.9-14.5-5.9H132.5z M704.2,1705.8c-5.7,0-10.5,2-14.5,5.9c-3.9,3.9-5.9,8.8-5.9,14.5V1910l204.2-204.2H704.2z M365.3,1586.2v63.3l-61.7,35.9l61.7,34.3v62.9l-138.8-80.4v-32.3L365.3,1586.2z M389.8,1586.2l138.8,83.7v32.3l-138.8,80.4v-62.9l61.7-34.3l-61.7-35.9V1586.2z M357.1,1134.2v204.2h81.7l40.8-40.8v-81.7l-40.8-40.8h-40.8v-40.8H357.1z M520.4,1134.2v204.2h40.8v-81.7h40.8v81.7h40.8v-204.2h-40.8v81.7h-40.8v-81.7H520.4z M683.8,1134.2v204.2h81.7l40.8-40.8v-81.7l-40.8-40.8h-40.8v-40.8H683.8z M397.9,1215.8h40.8v81.7h-40.8V1215.8z M724.6,1215.8h40.8v81.7h-40.8V1215.8z"/></g></g>
</svg>