<?xml version="1.0" encoding="utf-8"?>
<!-- Svg Vector Icons : http://www.onlinewebfonts.com/icon -->
<!DOCTYPE svg PUBLIC "-//W3C//DTD SVG 1.1//EN" "http://www.w3.org/Graphics/SVG/1.1/DTD/svg11.dtd">
<svg version="1.1" xmlns="http://www.w3.org/2000/svg" xmlns:xlink="http://www.w3.org/1999/xlink" x="0px" y="0px" viewBox="0 0 1000 1000" enable-background="new 0 0 1000 1000" xml:space="preserve">
<metadata> Svg Vector Icons : http://www.onlinewebfonts.com/icon </metadata>
<g><g><g><path d="M489.4,678.1c-3.3,1.9-7,3.3-11,4.1c-4,0.8-8.2,1.1-12.4,1v21.4h28.6v73.1h30.7V658.5h-24.1c-0.3,4.7-1.6,8.6-3.7,11.8C495.4,673.5,492.7,676.1,489.4,678.1z"/><path d="M73.8,494.4c0,0,12.5-27.2-6.6-56.5c-19.1-29.3-49-35.1-49-35.1s-13.8,32.2,4.9,60.7C41.7,492.1,73.8,494.4,73.8,494.4z"/><path d="M127.3,499.1c0,0,30.6-9.8,42-42c11.3-32.2-9.7-60.2-9.7-60.2s-27.6,12.7-39.3,45.7C108.7,475.7,127.3,499.1,127.3,499.1z"/><path d="M139.1,535.3c-7.2,34.2,14.3,55.1,14.3,55.1s29.1-13.8,36.2-47.1c7-33.3-17.5-58.4-17.5-58.4S146.3,501.1,139.1,535.3z"/><path d="M207,650.3c0,0,27.7-16.4,31.5-50.3c3.9-33.9-22.9-56.5-22.9-56.5s-24.1,18.5-28.1,53.3C183.5,631.6,207,650.3,207,650.3z"/><path d="M277.8,706.7c0,0,21.8-23.8,15.8-57.3c-6.1-33.5-38.2-47.5-38.2-47.5s-17.7,24.7-11.5,59.1C250,695.5,277.8,706.7,277.8,706.7z"/><path d="M99.2,423.4c0,0,25.5-15.7,25.8-50.7c0.3-35-21.3-56.3-21.3-56.3s-29.3,19.1-29.7,53.3C73.7,403.7,99.2,423.4,99.2,423.4z"/><path d="M90.3,564.7c0,0,3.9-29.7-23-52c-26.9-22.3-57.1-19.1-57.1-19.1s-3.6,34.8,22.5,56.6C58.9,571.9,90.3,564.7,90.3,564.7z"/><path d="M130.2,631.4c0,0-2.8-29.9-34-45.6c-31.2-15.8-59.9-5.8-59.9-5.8s4.2,34.8,34.6,50.2C101.2,645.4,130.2,631.4,130.2,631.4z"/><path d="M132.9,649.5C98.4,643.8,74,662,74,662s14.5,31.8,48.1,37.4c33.6,5.5,57-16.7,57-16.7S167.4,655.1,132.9,649.5z"/><path d="M200.2,703.8c-34.9-1.5-57,19.4-57,19.4s18.2,30,52.3,31.4c34,1.4,54.6-23.4,54.6-23.4S235.1,705.3,200.2,703.8z"/><path d="M107.2,442.3l-16.3-3.7c-0.4,1.8-37.9,178.6,215,309l7.6-14.8C72.9,608.6,105.7,449,107.2,442.3z"/><path d="M662.9,803.1h-16V624h16v-26.2h-19.4v-18.2c0,0-128.5-23.9-128.5-77.1c0-17.4,15.9-36.6,36.8-61.6l5.2,14.6l34.3-12.4l-2.1-5.9c56.2,3.3,102.7-11.6,138.9-44.5c90-82,80.1-245.6,79.6-252.5l-1.1-17H701.7l5.5,22.5c2.3,9.8,1.3,17.8-3.5,25.3c-11.3,17.8-40.5,27.3-50.9,29.4h-0.1c0.1-6.8,0.1-13.8-0.1-20.9h25.1v-28.9H500v-0.2H322.3v28.9h25.1c-0.2,7.1-0.2,14.1-0.1,20.9h-0.1c-10.3-2.1-39.6-11.6-50.9-29.4c-4.7-7.5-5.8-15.5-3.5-25.3l5.4-22.5H193.5l-1.1,17c-0.5,6.9-10.4,170.5,79.6,252.5c36.1,32.9,82.7,47.8,138.9,44.5l-2.1,5.9l34.3,12.4l5.2-14.6c20.9,25,36.8,44.2,36.8,61.6c0,53.2-128.5,77.1-128.5,77.1v18.3h-19.4v26.2h16v179.1h-16v29.7h-11.4V877H500v0.2h174.3v-44.4h-11.4V803.1z M649.3,246.2h25.3V232c17.2-5.6,44.6-17.8,59.8-41.5c6-9.5,9.5-19.9,10.2-31h27.1c-0.1,41.8-6.6,150.1-68.2,206.1c-30,27.2-70,38.6-119.2,34.4C611.9,362.4,639.5,313.6,649.3,246.2z M296.5,365.5c-61.6-56.1-68.1-164.3-68.2-206.2h27.1c0.7,11,4.2,21.5,10.2,31c15.1,23.6,42.6,35.8,59.7,41.4V246h25.4c9.8,67.4,37.4,116.2,65,153.8C366.5,404.1,326.5,392.7,296.5,365.5z M619.5,803.1H500v-0.2H380.4V630.7h119.5v0.2h119.6V803.1z"/><path d="M926.2,494.6c0,0,32.1-2.3,50.7-30.8c18.6-28.5,4.9-60.7,4.9-60.7s-29.9,5.8-49,35.1C913.7,467.4,926.2,494.6,926.2,494.6z"/><path d="M872.7,499.3c0,0,18.6-23.5,7-56.4c-11.6-33-39.3-45.7-39.3-45.7s-21,28-9.6,60.2C842.1,489.5,872.7,499.3,872.7,499.3z"/><path d="M846.6,590.6c0,0,21.5-20.9,14.3-55.1c-7.2-34.2-32.9-50.4-32.9-50.4s-24.5,25-17.5,58.4C817.4,576.8,846.6,590.6,846.6,590.6z"/><path d="M784.4,543.7c0,0-26.8,22.6-22.9,56.5c3.9,33.8,31.5,50.3,31.5,50.3s23.4-18.7,19.5-53.4C808.4,562.2,784.4,543.7,784.4,543.7z"/><path d="M706.5,649.6c-6.1,33.6,15.7,57.3,15.7,57.3s27.8-11.2,34-45.6c6.2-34.4-11.5-59.1-11.5-59.1S712.6,616.1,706.5,649.6z"/><path d="M900.8,423.6c0,0,25.5-19.7,25.1-53.8c-0.3-34.1-29.6-53.3-29.6-53.3s-21.6,21.4-21.3,56.3C875.3,407.9,900.8,423.6,900.8,423.6z"/><path d="M989.8,493.8c0,0-30.3-3.2-57.2,19.1c-26.9,22.4-23,52-23,52s31.4,7.3,57.6-14.4C993.4,528.6,989.8,493.8,989.8,493.8z"/><path d="M903.8,585.9c-31.2,15.8-34,45.6-34,45.6s29,14.1,59.4-1.4c30.4-15.4,34.6-50.2,34.6-50.2S934.9,570.1,903.8,585.9z"/><path d="M867.1,649.7c-34.5,5.7-46.2,33.2-46.2,33.2s23.4,22.2,57,16.7c33.6-5.5,48.1-37.4,48.1-37.4S901.6,644,867.1,649.7z"/><path d="M750,731.4c0,0,20.5,24.8,54.5,23.4c34-1.4,52.3-31.4,52.3-31.4s-22.1-21-57-19.5C764.9,705.5,750,731.4,750,731.4z"/><path d="M909,438.7l-16.3,3.7c1.5,6.7,34.4,166.3-206.4,290.4l7.6,14.8C946.9,617.3,909.4,440.5,909,438.7z"/></g></g><g></g><g></g><g></g><g></g><g></g><g></g><g></g><g></g><g></g><g></g><g></g><g></g><g></g><g></g><g></g></g>
</svg>