<?xml version="1.0" encoding="utf-8"?>
<!-- Svg Vector Icons : http://www.onlinewebfonts.com/icon -->
<!DOCTYPE svg PUBLIC "-//W3C//DTD SVG 1.1//EN" "http://www.w3.org/Graphics/SVG/1.1/DTD/svg11.dtd">
<svg version="1.1" xmlns="http://www.w3.org/2000/svg" xmlns:xlink="http://www.w3.org/1999/xlink" x="0px" y="0px" viewBox="0 0 1000 1000" enable-background="new 0 0 1000 1000" xml:space="preserve">
<metadata> Svg Vector Icons : http://www.onlinewebfonts.com/icon </metadata>
<g><g transform="translate(0.000000,512.000000) scale(0.100000,-0.100000)"><path d="M2992.7,5011.6c-36.4-9.6-86.3-40.3-109.3-70.9c-44.1-53.7-44.1-61.3-44.1-609.6v-555.9l-113.1-51.8c-147.6-69-327.8-258.8-387.2-412.1c-36.4-90.1-44.1-147.6-46-312.4c0-185.9,3.8-210.8,61.3-329.7c32.6-70.9,95.8-166.8,138-212.8c44.1-46,78.6-95.8,78.6-107.4c0-40.2-310.5-1199.9-325.9-1215.3c-17.3-21.1-139.9,40.2-316.3,157.2c-72.8,47.9-143.8,93.9-157.2,103.5c-13.4,9.6-49.8-24.9-99.7-95.8c-74.8-101.6-76.7-109.3-46-143.8c42.2-46,299-210.8,435.1-277.9c103.5-49.8,107.3-55.6,95.8-111.2c-28.8-134.2-21.1-134.2-207-38.3c-92,46-237.7,134.2-322,193.6l-155.3,109.3l-34.5-46c-19.2-24.9-109.3-147.6-201.3-272.2c-157.2-214.7-164.8-228.1-130.3-255c130.3-103.5,452.4-300.9,624.9-381.4c130.3-61.3,205.1-107.4,205.1-124.6c0-15.3-97.8-391-214.7-833.8l-214.7-805.1l-67.1,5.8c-36.4,3.8-82.4-5.8-101.6-19.2c-23-17.3-84.4-220.4-205.1-672.8c-95.8-354.6-172.5-667.1-172.5-692c0-40.2,15.3-49.8,159.1-88.2c86.3-23,260.7-70.9,387.2-105.4c178.3-49.8,235.8-57.5,254.9-40.3c23,23,368,1291.9,368,1357.1c0,36.4-86.3,111.2-128.4,111.2c-19.2,0-23,11.5-15.3,36.4c5.7,21.1,105.4,392.9,220.4,828.1c115,433.2,212.8,793.6,218.5,797.4c3.8,5.8,49.8,0,101.6-13.4c153.3-36.4,793.6-46,987.2-15.3c151.4,24.9,168.7,24.9,176.3-1.9c5.8-17.2,157.2-630.6,337.4-1362.9c180.2-732.2,331.6-1334.1,333.5-1337.9c3.8-1.9,90.1,105.4,191.7,241.5l184,249.2l-287.5,1178.8C4292.3-583.6,4161.9-48.8,4161.9-43.1c0,3.8,40.3,23,92,42.2c161,61.3,414,195.5,594.2,314.4c95.8,65.2,180.2,124.6,184,134.2c5.8,7.7-80.5,136.1-189.8,285.6l-201.3,272.2l-115-84.4c-120.8-90.1-477.3-279.8-523.3-279.8c-17.3,0-36.4,32.6-47.9,80.5c-11.5,44.1-19.2,82.4-17.3,84.3c1.9,0,63.3,28.8,138,63.3c124.6,57.5,450.5,260.7,450.5,281.8c0,5.7-40.3,63.3-90.1,128.4c-47.9,65.2-90.1,120.8-93.9,124.6c-1.9,3.8-57.5-32.6-124.6-78.6c-174.4-122.7-360.4-212.8-371.9-182.1c-3.8,13.4-76.7,285.6-161,603.8L3531.3,2328l95.8,88.2c59.4,57.5,120.8,141.9,162.9,230c128.4,256.9,107.3,575-49.8,803.1c-80.5,116.9-235.8,251.1-335.4,289.4l-86.3,32.6v544.4c0,584.6-5.7,624.9-99.7,670.9C3153.7,5019.2,3067.4,5028.8,2992.7,5011.6z M3245.7,3493.4c42.2-11.5,115-57.5,162.9-99.7c375.7-331.6,118.8-952.7-377.6-906.7c-542.5,47.9-638.3,810.8-126.5,1004.4C2983.1,3520.3,3151.7,3522.2,3245.7,3493.4z M3218.8,1586.2c103.5-394.9,149.5-596.1,136.1-609.5c-24.9-24.9-584.6-24.9-609.5,0c-19.2,19.2,281.8,1198,306.7,1198C3057.8,2174.7,3132.6,1910.2,3218.8,1586.2z M3069.3,650.8c120.8,0,258.8,3.8,304.8,9.6l84.3,7.7l24.9-84.3c13.4-46,23-86.3,19.2-90.1c-1.9-3.8-97.8-15.3-210.8-26.8c-157.2-17.2-262.6-17.2-429.4,0c-120.8,11.5-228.1,26.8-237.7,32.6c-17.2,11.5-5.7,132.3,15.3,164.9c5.7,7.7,53.7,7.7,109.3,0C2804.8,656.5,2948.6,650.8,3069.3,650.8z"/><path d="M7734.9,1164.5C7000.7,163.9,5720.3-1574.6,4892.2-2699.8C4064.1-3825,3381.8-4754.6,3379.8-4764.2c-5.8-13.4,1006.3-17.3,2846.5-15.3l2852.2,5.8l5.7,262.6l5.7,264.5h-115c-95.8,0-118.8,5.8-136.1,38.3c-15.3,26.8-15.3,49.8,0,76.7c17.3,32.6,40.2,38.3,134.2,38.3h115v153.3v153.3h-124.6c-69,0-124.6,7.7-124.6,17.3c0,9.6-5.8,30.7-11.5,46c-19.2,51.8,46,90.1,157.2,90.1h103.5v143.8v143.8h-115c-93.9,0-116.9,5.7-134.2,38.3c-15.3,26.8-15.3,49.8,0,76.7c17.3,32.6,40.2,38.3,134.2,38.3h115v153.3v153.3h-115c-93.9,0-116.9,5.8-134.2,38.3c-15.3,26.8-15.3,49.8,0,76.7c17.3,32.6,40.2,38.3,134.2,38.3h115v153.3v153.3h-122.7c-130.3,0-153.3,15.3-132.3,93.9c9.6,36.4,24.9,40.3,132.3,40.3h122.7v153.3v153.3h-115c-103.5,0-118.8,5.7-132.3,44.1c-30.7,78.6,5.8,109.3,132.3,109.3h115v153.3v153.3h-115c-93.9,0-116.9,5.8-134.2,38.3c-15.3,26.8-15.3,49.8,0,76.7c17.3,32.6,40.2,38.3,134.2,38.3h115v143.8v143.8h-103.5c-111.2,0-176.3,38.3-157.2,90.1c5.7,15.3,11.5,36.4,11.5,46c0,9.6,55.6,17.3,124.6,17.3h124.6v153.3v153.3h-115c-93.9,0-116.9,5.7-134.2,38.3c-15.3,26.8-15.3,49.8,0,76.7c17.3,32.6,40.2,38.3,134.2,38.3h115v153.3v153.3h-124.6c-69,0-124.6,7.7-124.6,17.2s-5.8,30.7-11.5,46c-19.2,51.8,46,90.1,157.2,90.1h103.5v143.8v141.8l-118.8,5.8l-120.8,5.8v67.1v67.1l120.8,5.7l118.8,5.7v151.4v153.3h-115c-93.9,0-116.9,5.7-134.2,38.3c-15.3,26.8-15.3,49.8,0,76.7c17.3,32.6,40.2,38.3,134.2,38.3h115v153.3v153.3h-122.7c-103.5,0-126.5,5.7-136.1,36.4c-23,76.7,5.7,97.8,136.1,97.8h122.7v153.3V1638h-115c-93.9,0-116.9,5.7-134.2,38.3c-15.3,26.8-15.3,49.8,0,76.7c17.3,32.6,40.2,38.3,134.2,38.3h115v594.2c0,327.8-3.8,594.2-7.7,594.2C9076.6,2979.7,8470.9,2163.2,7734.9,1164.5z M7989.8-3704.2c-3.8-3.8-584.6-3.8-1290-1.9l-1284.3,5.7l1286.2,1759.6L7986-183l5.7-1755.8C7993.6-2906.8,7993.6-3700.4,7989.8-3704.2z"/><path d="M1087.3-3286.4c-3.8-5.7-30.7-101.6-61.3-210.8l-53.7-199.3l53.7-44.1l51.8-46l-90.1-460c-47.9-253-84.3-473.5-76.7-488.8c5.8-15.3,26.8-28.8,47.9-28.8c42.2,0,46,9.6,233.9,559.7c116.9,345,124.6,360.4,172.5,360.4c28.8,0,59.4,11.5,70.9,24.9c26.8,32.6,124.6,398.7,109.3,412.1C1526.3-3386,1095-3272.9,1087.3-3286.4z"/></g></g>
</svg>