<?xml version="1.0" encoding="UTF-8" standalone="no"?>
<!-- Svg Vector Icons : http://www.onlinewebfonts.com/icon -->
<!DOCTYPE svg  PUBLIC '-//W3C//DTD SVG 1.1//EN'  'http://www.w3.org/Graphics/SVG/1.1/DTD/svg11.dtd'>
<svg xmlns="http://www.w3.org/2000/svg" xml:space="preserve" version="1.1" y="0px" x="0px" xmlns:xlink="http://www.w3.org/1999/xlink" viewBox="0 0 1000 1000" enable-background="new 0 0 1000 1000">
<metadata> Svg Vector Icons : http://www.onlinewebfonts.com/icon </metadata>
<path d="m951.5 307.7c-24.7-58.5-60-108.8-105-153.9s-97.4-80.5-155.7-105.2c-60.5-25.6-124.7-38.5-190.8-38.5s-130.3 13-190.7 38.6c-58.4 24.7-110.8 60.1-155.7 105.2-45 45.1-80.3 95.4-105 153.9-25.6 60.5-38.6 124.8-38.6 191.1s13 130.6 38.5 191.1c24.7 58.5 60 111 105 156.1s97.4 80.5 155.7 105.2c60.4 25.6 124.6 38.6 190.7 38.6s130.3-13 190.7-38.6c58.4-24.7 110.7-60.1 155.7-105.2s80.3-97.6 105-156.1c25.7-60.5 38.7-124.8 38.7-191.1s-13-130.6-38.5-191.2zm-451.5 646.2c-250.4 0-454-204.1-454-455s203.6-452.8 454-452.8c250.3 0 454 201.9 454 452.8s-203.7 455-454 455zm4.5-595.2c-29.3 0-53 22.1-53 49.4v313.3c0 27.3 23.7 49.5 53 49.5s53-22.1 53-49.5v-313.3c0-27.3-23.8-49.4-53-49.4zm0-156.6c-29.3 0-53 22.1-53 49.4s23.7 49.5 53 49.5 53-22.1 53-49.5c0-27.3-23.8-49.4-53-49.4z"/>
</svg>
