<?xml version="1.0" encoding="utf-8"?>
<!-- Svg Vector Icons : http://www.onlinewebfonts.com/icon -->
<!DOCTYPE svg PUBLIC "-//W3C//DTD SVG 1.1//EN" "http://www.w3.org/Graphics/SVG/1.1/DTD/svg11.dtd">
<svg version="1.1" xmlns="http://www.w3.org/2000/svg" xmlns:xlink="http://www.w3.org/1999/xlink" x="0px" y="0px" viewBox="0 0 1000 1000" enable-background="new 0 0 1000 1000" xml:space="preserve">
<metadata> Svg Vector Icons : http://www.onlinewebfonts.com/icon </metadata>
<g><path d="M603.9,649.7c-12.2-12.2-27.5-18.3-42.8-18.3c-15.3-3.1-33.6,3.1-45.8,12.2h-3.1c-30.6,12.2-67.2,18.3-100.8,12.2C325.9,637.5,274,551.9,295.3,469.4c18.3-70.3,79.4-116.1,149.7-119.2c9.2,0,21.4-3.1,30.6-9.2c12.2-6.1,15.3-18.3,21.4-27.5l18.3-88.6c3.1-9.2,0-18.3-3.1-27.5c-3.1-9.2-12.2-12.2-21.4-15.3h-3.1c-12.2-3.1-15.3-15.3-21.4-24.4C463.4,151.7,442,115,442,115c-12.2-27.5-39.7-42.8-67.2-33.6L274,111.9c-27.5,9.2-39.7,39.7-36.7,67.2c0,0,3.1,42.8,3.1,48.9c0,9.2,0,18.3-3.1,30.6c-21.4,18.3-39.7,33.6-55,58.1c-9.2,3.1-21.4,6.1-27.5,6.1c-9.2,0-51.9-3.1-51.9-3.1c-27.5,0-61.1,12.2-67.2,39.7l-24.4,91.7c-6.1,27.5,12.2,51.9,39.7,64.2c0,0,39.7,18.3,45.8,21.4c9.2,3.1,18.3,9.2,24.4,18.3c3.1,24.4,12.2,48.9,21.4,73.3c0,12.2-3.1,21.4-9.2,30.6c-3.1,6.1-27.5,42.8-27.5,42.8c-15.3,24.4-21.4,58.1,3.1,76.4l76.4,70.3c21.4,18.3,51.9,12.2,76.4-3.1c0,0,36.7-24.4,42.8-30.6c12.2-6.1,21.4-12.2,36.7-12.2c9.2,3.1,18.3,6.1,27.5,9.2c9.2,3.1,21.4,3.1,27.5,3.1c15.3,3.1,24.4,15.3,30.6,27.5c3.1,6.1,24.4,42.8,24.4,42.8c12.2,27.5,39.7,42.8,67.2,33.6l100.8-30.6c27.5-9.2,39.7-39.7,36.7-67.2l-3.1-48.9v-21.4c0-9.2,3.1-15.3,6.1-21.4l3.1-9.2c0-12.2-6.1-21.4-12.2-30.6L603.9,649.7z M949.2,438.9c0,0-39.7-18.3-45.8-21.4c-12.2-6.1-24.4-12.2-27.5-33.6c-3.1-15.3-9.2-33.6-15.3-48.9c-6.1-18.3,0-30.6,6.1-42.8c3.1-9.2,27.5-42.8,27.5-42.8c15.3-24.4,21.4-58.1-3.1-76.4l-76.4-70.3c-21.4-18.3-51.9-15.3-76.4,3.1c0,0-36.7,27.5-42.8,30.6c-9.2,6.1-18.3,12.2-30.6,12.2c-9.2-3.1-21.4,0-27.5,3.1c-9.2,3.1-15.3,12.2-18.3,21.4l-27.5,100.8c-3.1,6.1-3.1,15.3,3.1,21.4c3.1,9.2,12.2,12.2,18.3,15.3h3.1c67.2,30.6,106.9,103.9,88.6,177.2c-3.1,18.3-12.2,33.6-12.2,33.6c-9.2,12.2-12.2,24.4-12.2,36.7c3.1,12.2,9.2,27.5,18.3,33.6l61.1,58.1c6.1,3.1,15.3,9.2,27.5,9.2c12.2,0,21.4-3.1,27.5-12.2l-9.2,12.2c12.2-15.3,27.5-15.3,39.7-15.3c9.2,0,51.9,3.1,51.9,3.1c30.6,3.1,61.1-12.2,67.2-39.7l24.4-100.8C995.1,475.6,973.7,454.2,949.2,438.9z"/></g>
</svg>