<?xml version="1.0" encoding="utf-8"?>
<!-- Svg Vector Icons : http://www.onlinewebfonts.com/icon -->
<!DOCTYPE svg PUBLIC "-//W3C//DTD SVG 1.1//EN" "http://www.w3.org/Graphics/SVG/1.1/DTD/svg11.dtd">
<svg version="1.1" xmlns="http://www.w3.org/2000/svg" xmlns:xlink="http://www.w3.org/1999/xlink" x="0px" y="0px" viewBox="0 0 1000 1000" enable-background="new 0 0 1000 1000" xml:space="preserve">
<metadata> Svg Vector Icons : http://www.onlinewebfonts.com/icon </metadata>
<g><path d="M580.4,418.3h-81.7V10c-116.4,0-366.2,0-366.2,0c-22.6,0-40.8,18.3-40.8,40.8v898.3c0,22.6,18.3,40.8,40.8,40.8h735c22.6,0,40.8-18.3,40.8-40.8c0,0,0-383.6,0-530.8L580.4,418.3L580.4,418.3z M580.4,336.7h325.4c-8-62.8-34.2-77.5-63.9-107.2c-33.7-33.7-57-57-72.6-72.6c0,0,0,0,0,0c0,0-0.1-0.1-0.1-0.1c0,0,0.1,0.1,0.1,0.1c-0.3-0.3-0.7-0.7-1-1c-13.6-13.6-21.3-21.3-24.9-24.9c-0.4-0.4-0.7-0.7-1-1c0,0,0.1,0.1,0.1,0.1c0,0-0.1-0.1-0.1-0.1c0,0,0,0,0,0c-15.7-15.7-39-39-72.6-72.6c-23.8-23.8-42.4-39.9-89.3-45.2L580.4,336.7L580.4,336.7z"/></g>
</svg>