<?xml version="1.0" encoding="UTF-8" standalone="no"?>
<!-- Svg Vector Icons : http://www.onlinewebfonts.com/icon -->
<!DOCTYPE svg  PUBLIC '-//W3C//DTD SVG 1.1//EN'  'http://www.w3.org/Graphics/SVG/1.1/DTD/svg11.dtd'>
<svg xmlns="http://www.w3.org/2000/svg" xml:space="preserve" version="1.1" y="0px" x="0px" xmlns:xlink="http://www.w3.org/1999/xlink" viewBox="0 0 1000 1000" enable-background="new 0 0 1000 1000">
<metadata> Svg Vector Icons : http://www.onlinewebfonts.com/icon </metadata>
<g transform="translate(0 511) scale(0.1 -0.1)"><path d="m222.5 4219.7c-134.4-87-124.5 253-120.6-4133.4 5.9-3923.8 5.9-3959.4 45.5-4012.8 21.7-27.7 63.3-65.2 92.9-83 47.4-27.7 498.1-31.6 4764-31.6h4712.6l67.2 49.4c37.6 27.7 79.1 49.4 92.9 49.4 21.7 0 25.7 711.6 21.7 4016.8-5.9 3983.1-5.9 4018.7-45.5 4072.1-21.7 27.7-63.3 65.2-92.9 83-47.4 27.7-498.1 31.6-4764 31.6-4692.8 0-4710.6 0-4773.8-41.5zm9403.3-4109.7v-3874.4h-9251.1v7748.8h9251.2v-3874.4z"/><path d="m1074.4 3648.4c-92.9-37.6-106.7-89-106.7-377.6v-270.8l61.3-51.4 61.3-51.4h3492.9l55.4 47.4c55.3 47.4 55.3 51.4 61.3 298.5 4 162.1 0 270.8-15.8 306.4-51.4 122.6 15.8 118.6-1862.1 116.6-937.1 0.1-1725.8-7.8-1747.6-17.7zm3481.1-365.7v-237.2l-1723.7-5.9-1725.7-4v494.2l1725.7-4 1723.7-5.9v-237.2z"/><path d="m8408.2 3648.4c-23.7-7.9-61.3-41.5-85-71.2-37.5-47.4-41.5-77.1-41.5-288.6 0-260.9 23.7-340 110.7-371.6 27.7-11.9 160.1-19.8 294.5-19.8 229.3 0 249.1 2 300.5 47.4 55.3 47.4 55.3 51.4 61.3 298.5 7.9 290.6-9.9 355.8-106.7 397.3-73.2 31.7-464.6 37.6-533.8 8zm496.1-365.7v-237.2h-474.4l-5.9 215.5c-2 120.6 0 229.3 4 243.1 7.9 21.7 63.2 25.7 243.1 21.7l233.3-5.9v-237.2z"/><path d="m1017.1 2492l-49.4-47.4v-5519.1l49.4-47.5 47.4-49.4h7871.5l47.5 49.4 49.4 47.5v5519l-49.4 47.4-47.5 49.4h-7871.5l-47.4-49.3zm7877.4-2807v-2718h-7788.4v5436h7788.4v-2718z"/></g>
</svg>
