<?xml version="1.0" encoding="utf-8"?>
<!-- Svg Vector Icons : http://www.onlinewebfonts.com/icon -->
<!DOCTYPE svg PUBLIC "-//W3C//DTD SVG 1.1//EN" "http://www.w3.org/Graphics/SVG/1.1/DTD/svg11.dtd">
<svg version="1.1" xmlns="http://www.w3.org/2000/svg" xmlns:xlink="http://www.w3.org/1999/xlink" x="0px" y="0px" viewBox="0 0 1000 1000" enable-background="new 0 0 1000 1000" xml:space="preserve">
<metadata> Svg Vector Icons : http://www.onlinewebfonts.com/icon </metadata>
<g><g transform="translate(0.000000,511.000000) scale(0.100000,-0.100000)"><path d="M1932.9,4999.1c-540.9-65.1-886.5-465.8-889-1024.2c0-533.4,345.6-1011.7,939.1-1292.2c303-142.7,606-202.8,1399.9-273c220.4-17.5,578.5-42.6,791.3-50.1c350.6-15,400.7-25,525.9-82.6c195.3-95.2,460.8-95.2,638.6,0c115.2,60.1,155.3,67.6,538.4,82.6c756.3,27.5,1640.3,132.7,1920.8,227.9c433.2,147.7,828.9,460.8,1019.2,808.9c245.4,453.3,157.8,1061.8-200.3,1377.3c-388.1,340.6-1164.5,308-1778-75.1c-298-187.8-588.5-468.3-929.1-896.5c-160.3-200.3-305.5-380.6-320.5-398.2c-22.5-25-55.1-15-160.3,55.1c-212.9,142.7-385.6,172.8-618.5,102.7c-67.6-20-170.3-75.1-227.9-125.2c-57.6-47.6-107.7-87.6-115.2-87.6c-7.5,0-135.2,155.3-283,345.6C3575.7,4465.7,3092.4,4838.9,2539,4961.6C2331.1,5009.1,2115.8,5021.7,1932.9,4999.1z M2428.8,4583.4c488.3-120.2,823.9-385.7,1429.9-1131.9c192.8-240.4,378.1-465.8,408.2-500.8c30-35.1,55.1-97.7,57.6-135.2v-70.1l-268,15c-776.3,45.1-1502.6,135.2-1748,217.9c-515.9,170.3-833.9,505.8-859,909c-15,222.9,37.6,413.2,147.7,545.9C1767.7,4638.5,2023.1,4686.1,2428.8,4583.4z M8213.6,4583.4c320.5-127.7,445.8-651.1,242.9-1031.7c-132.7-247.9-410.7-455.8-766.3-576c-250.4-82.7-924.1-167.8-1717.9-215.4l-268-17.5l15,97.7c17.5,115.2-7.5,82.6,423.2,611c380.7,468.3,638.6,728.7,869,881.5C7424.8,4606,7903.1,4706.1,8213.6,4583.4z M5170.9,3148.5c112.7-70.1,170.3-205.4,132.7-325.6c-100.2-333.1-578.5-270.5-578.5,75.1C4725.2,3136,4968.1,3271.2,5170.9,3148.5z"/><path d="M1782.7,1974c-55.1-25-127.7-77.6-162.8-112.7c-62.6-67.6-62.6-72.6-70.1-606l-7.5-535.9h801.4h803.9v651.1v651.1h-631.1C1953,2021.6,1870.3,2014.1,1782.7,1974z"/><path d="M3548.2,1370.5V719.4h2404.1h2404.1v520.9c0,588.5-17.5,658.6-175.3,736.3c-82.6,42.6-247.9,45.1-2359,45.1H3548.2V1370.5z"/><path d="M1544.8-2047.8c0-2278.9,2.5-2371.5,47.6-2461.7c60.1-117.7,140.2-192.8,257.9-242.9c75.1-30,207.8-37.6,696.2-37.6h601v2554.3V318.7h-801.4h-801.4V-2047.8z"/><path d="M3548.2-2235.7V-4790l2288.9,5l2288.9,7.5l70.1,62.6c140.2,130.2,160.3,215.4,160.3,746.3v480.8h-853.9c-966.7,0-976.7,2.5-1450,212.9c-130.2,57.6-413.2,175.3-626.1,262.9c-212.9,87.7-403.2,175.3-420.7,197.9c-62.6,75.1,20,308,120.2,340.6c25,7.5,185.3-42.6,365.6-115.2c177.8-70.1,338.1-132.7,355.6-140.2c17.5-7.5,30.1,10,30.1,45.1c0,55.1-52.6,80.1-566,285.5c-583.5,230.4-661.1,278-661.1,405.7c0,85.2,105.2,182.8,197.8,182.8c55.1,0,671.1-230.4,1044.3-390.7c15-7.5,37.6,15,55.1,50.1c27.6,60.1,27.6,60.1-578.5,303c-628.6,247.9-718.7,303-718.7,428.2c0,87.7,105.2,185.3,200.3,185.3c42.6,0,380.7-122.7,751.3-270.4c661.1-268,676.1-270.4,738.8-230.4l65.1,42.6l-470.8,195.3c-701.2,290.5-726.2,303-756.3,390.7c-47.6,135.2,40.1,257.9,180.3,257.9c45.1-2.5,423.2-145.2,838.9-320.5l761.3-315.6l165.3,27.6c92.7,15,210.4,35,263,45.1l97.7,15L7056.6-976c-470.8,463.3-485.8,490.8-355.6,621.1c140.2,140.2,175.3,120.2,606-333.1c210.4-225.4,500.8-513.4,646.1-643.6c145.2-127.7,295.5-263,335.5-298l67.6-65.1V-688V318.7H5952.3H3548.2V-2235.7z"/></g></g>
</svg>