<?xml version="1.0" encoding="utf-8"?>
<!-- Svg Vector Icons : http://www.onlinewebfonts.com/icon -->
<!DOCTYPE svg PUBLIC "-//W3C//DTD SVG 1.1//EN" "http://www.w3.org/Graphics/SVG/1.1/DTD/svg11.dtd">
<svg version="1.1" xmlns="http://www.w3.org/2000/svg" xmlns:xlink="http://www.w3.org/1999/xlink" x="0px" y="0px" viewBox="0 0 1000 1000" enable-background="new 0 0 1000 1000" xml:space="preserve">
<metadata> Svg Vector Icons : http://www.onlinewebfonts.com/icon </metadata>
<g><path d="M808,318c0-170.1-137.9-308-308-308c-170.1,0-308,137.9-308,308c0,77.3,28.6,147.9,75.6,202l-0.2-0.1c80.6,92.4,203.1,245.2,212.2,449.6c0,11.3,9.1,20.4,20.4,20.4s20.4-9.1,20.4-20.4C529.5,765.2,652,612.4,732.6,520l-0.2,0.1C779.5,466,808,395.4,808,318z M500,178.1c77.3,0,139.9,62.7,139.9,139.9c0,77.3-62.7,140-139.9,140c-77.3,0-139.9-62.7-139.9-139.9C360.1,240.7,422.7,178.1,500,178.1z"/></g>
</svg>