<?xml version="1.0" encoding="UTF-8" standalone="no"?>
<!-- Svg Vector Icons : http://www.onlinewebfonts.com/icon -->
<!DOCTYPE svg  PUBLIC '-//W3C//DTD SVG 1.1//EN'  'http://www.w3.org/Graphics/SVG/1.1/DTD/svg11.dtd'>
<svg xmlns="http://www.w3.org/2000/svg" xml:space="preserve" version="1.1" y="0px" x="0px" xmlns:xlink="http://www.w3.org/1999/xlink" viewBox="0 0 1000 1000" enable-background="new 0 0 1000 1000">
<metadata> Svg Vector Icons : http://www.onlinewebfonts.com/icon </metadata>
<path d="m795.4 971.5c-5 11.2-16.1 18.5-28.4 18.5h-534c-12.3 0-23.4-7.2-28.4-18.5-5-11.2-2.9-24.4 5.4-33.5l165.6-196v-374.6h-20.7c-17.2 0-31.1 1.6-31.1-15.6s13.9-15.5 31.1-15.5h20.7c17.2 0 31.1-1.6 31.1 15.5v402.2c0 7.7-2.9 15.1-8 20.8l-157.8 184h518.3l-157.8-184c-5.2-5.7-8-13.1-8-20.8v-402.2c0-17.2 13.9-15.5 31.1-15.5h20.7c17.2 0 31.1-1.6 31.1 15.5 0 17.2-13.9 15.6-31.1 15.6h-20.7v374.7l165.6 196c8.2 9.1 10.3 22.2 5.3 33.4zm-124.3-774.9c-51.5 0-93.3-41.8-93.3-93.3s41.7-93.3 93.3-93.3c51.5 0 93.3 41.8 93.3 93.3s-41.8 93.3-93.3 93.3zm0-155.5c-34.3 0-62.2 27.9-62.2 62.2s27.9 62.2 62.2 62.2 62.2-27.9 62.2-62.2-27.9-62.2-62.2-62.2zm-202.2 248.8c-25.8 0-46.7-20.9-46.7-46.7 0-25.7 20.9-46.6 46.7-46.6s46.7 20.9 46.7 46.6c-0.1 25.8-20.9 46.7-46.7 46.7z"/>
</svg>
