<?xml version="1.0" encoding="utf-8"?>
<!-- Svg Vector Icons : http://www.onlinewebfonts.com/icon -->
<!DOCTYPE svg PUBLIC "-//W3C//DTD SVG 1.1//EN" "http://www.w3.org/Graphics/SVG/1.1/DTD/svg11.dtd">
<svg version="1.1" xmlns="http://www.w3.org/2000/svg" xmlns:xlink="http://www.w3.org/1999/xlink" x="0px" y="0px" viewBox="0 0 1000 1000" enable-background="new 0 0 1000 1000" xml:space="preserve">
<metadata> Svg Vector Icons : http://www.onlinewebfonts.com/icon </metadata>
<g><g transform="translate(0.000000,511.000000) scale(0.100000,-0.100000)"><path d="M703.4,3317.8c-182.5-36.5-378.5-174.9-486.2-342C94.3,2783.7,100,2914.3,100,99.2c0-2818.9-5.8-2661.4,119.1-2857.4c78.8-124.9,190.2-221,340.1-292.1l126.8-59.6H5000h4313.9l126.8,59.6c149.9,71.1,261.3,167.2,340.1,292.1c124.9,196,119.1,38.4,119.1,2867c0,2828.5,5.8,2671-119.1,2867c-78.8,124.9-190.2,221-340.1,292.1l-126.8,59.6l-4265.8,1.9C2701.8,3331.3,745.7,3325.5,703.4,3317.8z M9277.4,2714.5l65.3-65.3V108.8v-2540.3l-65.3-65.3l-65.3-65.3H5000H788l-65.3,65.3l-65.3,65.3V108.8v2540.3l65.3,65.3l65.3,65.3h4212h4212L9277.4,2714.5z"/><path d="M2928.6,1951.6c-443.9-86.5-745.6-561.1-630.3-993.4c105.7-392,447.7-641.8,841.6-614.9c693.7,50,1012.7,862.8,536.1,1366.2C3478.1,1919,3205.3,2007.3,2928.6,1951.6z"/><path d="M5490,1475.1c-123-51.9-157.6-219.1-61.5-301.7c59.6-51.9,13.4-48,734-48c770.5,0,716.7-3.8,768.6,50c65.3,63.4,65.3,178.7,1.9,253.6l-46.1,53.8l-680.2,3.8C5834,1488.5,5511.1,1482.8,5490,1475.1z"/><path d="M5436.2,646.9c-61.5-48-82.6-138.4-51.9-213.3c50-117.2-7.7-113.4,1610.3-113.4h1477.7l51.9,40.4c73,57.6,94.2,123,69.2,201.8c-44.2,130.7,51.9,123-1606.4,123C5511.1,685.3,5484.2,685.3,5436.2,646.9z"/><path d="M2665.3-66c-816.7-111.4-1312.4-576.5-1272.1-1191.4c11.5-165.2,51.9-263.2,151.8-355.5c149.9-142.2,46.1-132.6,1543-132.6c1291.3,0,1348.9,1.9,1420,36.5c174.9,86.5,263.3,232.5,276.7,453.5c32.7,564.9-378.5,1005-1081.8,1156.8C3501.2-54.5,2884.4-35.3,2665.3-66z"/><path d="M5459.2-131.3c-105.7-57.6-119.1-222.9-23.1-297.8c48-38.4,75-38.4,1550.7-38.4c1658.3,0,1562.2-7.7,1606.4,123c25,78.8,3.8,144.1-69.2,201.8l-51.9,40.4H6990.7C5749.4-104.5,5501.5-108.3,5459.2-131.3z"/><path d="M5507.3-911.5c-138.3-40.3-180.6-199.8-78.8-299.8l51.9-53.8h1508.4h1508.4l51.9,51.9c98,99.9,51.9,265.2-84.6,301.7C8374.2-886.5,5593.8-886.5,5507.3-911.5z"/></g></g>
</svg>