<?xml version="1.0" encoding="utf-8"?>
<!-- Svg Vector Icons : http://www.onlinewebfonts.com/icon -->
<!DOCTYPE svg PUBLIC "-//W3C//DTD SVG 1.1//EN" "http://www.w3.org/Graphics/SVG/1.1/DTD/svg11.dtd">
<svg version="1.1" xmlns="http://www.w3.org/2000/svg" xmlns:xlink="http://www.w3.org/1999/xlink" x="0px" y="0px" viewBox="0 0 1000 1000" enable-background="new 0 0 1000 1000" xml:space="preserve">
<metadata> Svg Vector Icons : http://www.onlinewebfonts.com/icon </metadata>
<g><path d="M982.9,297.3c-7.5-14-19.9-24.2-34.9-28.7L332.7,82.5c-5.5-1.7-11.2-2.5-17-2.5c-25.9,0-49.1,17.3-56.6,42.1l-55,182.7H69c-32.6,0-59,26.5-59,59.2v496.9c0,32.6,26.5,59.2,59,59.2h780.5c32.6,0,59-26.5,59-59.2V604.4l78.9-262C992,327.3,990.4,311.3,982.9,297.3z M69,328.4h780.5c19.5,0,35.4,15.9,35.4,35.5v94.7H33.6v-94.7C33.6,344.4,49.5,328.4,69,328.4z M849.5,896.3H69c-19.5,0-35.4-15.9-35.4-35.5V506h851.3v354.9C884.9,880.4,869,896.3,849.5,896.3z M964.9,335.5l-56.3,187V363.9c0-32.6-26.5-59.2-59-59.2H228.7l53-175.9c4.5-14.9,18.5-25.2,34-25.2c3.4,0,6.8,0.5,10.1,1.5l615.3,186.1c9,2.7,16.4,8.8,20.9,17.2C966.6,316.9,967.6,326.5,964.9,335.5z"/><path d="M558.7,601H110c-6.5,0-11.8,5.3-11.8,11.8c0,6.5,5.3,11.8,11.8,11.8h448.7c6.5,0,11.8-5.3,11.8-11.8C570.5,606.3,565.2,601,558.7,601z"/><path d="M440.6,718.5H110c-6.5,0-11.8,5.3-11.8,11.8s5.3,11.8,11.8,11.8h330.6c6.5,0,11.8-5.3,11.8-11.8S447.1,718.5,440.6,718.5z"/><path d="M782.3,601H676c-19.5,0-35.4,16-35.4,35.5S656.5,672,676,672h106.3c19.5,0,35.4-16,35.4-35.5C817.7,616.9,801.7,601,782.3,601z"/></g>
</svg>