<?xml version="1.0" encoding="UTF-8" standalone="no"?>
<!-- Svg Vector Icons : http://www.onlinewebfonts.com/icon -->
<!DOCTYPE svg  PUBLIC '-//W3C//DTD SVG 1.1//EN'  'http://www.w3.org/Graphics/SVG/1.1/DTD/svg11.dtd'>
<svg xmlns="http://www.w3.org/2000/svg" xml:space="preserve" version="1.1" y="0px" x="0px" xmlns:xlink="http://www.w3.org/1999/xlink" viewBox="0 0 1000 1000" enable-background="new 0 0 1000 1000">
<metadata> Svg Vector Icons : http://www.onlinewebfonts.com/icon </metadata>
<path d="m971.9 324.1l-213.2 333.5c-8.1 12.7-22.1 20.4-37 20.4h-406.5l-56.6 90.4h524.6c24 0 43.5 20 43.5 44.7s-19.5 44.7-43.5 44.7h-604.2c-15.9 0-30.5-8.9-38.2-23.2-7.6-14.3-7-31.8 1.6-45.5l91.9-146.8-129.7-543h-40.1c-24 0-43.5-20-43.5-44.7 0-24.6 19.4-44.6 43.5-44.6h74.3c20 0 37.5 14 42.3 34l50.4 211h703.5c16.2 0 31 9 38.7 23.4s7 31.9-1.8 45.7zm-719.1 20.4l58.3 244.1h386.7l156.1-244.1h-601.1zm32.9 551.8c25.2 0 45.6 21 45.6 46.8 0 25.9-20.4 46.8-45.6 46.8s-45.7-20.9-45.7-46.7c0-25.9 20.5-46.9 45.7-46.9zm391.6 0c25.2 0 45.6 21 45.6 46.8 0 25.9-20.4 46.8-45.6 46.8s-45.6-21-45.6-46.8 20.4-46.8 45.6-46.8z"/>
</svg>
