<?xml version="1.0" encoding="UTF-8" standalone="no"?>
<!-- Svg Vector Icons : http://www.onlinewebfonts.com/icon -->
<!DOCTYPE svg  PUBLIC '-//W3C//DTD SVG 1.1//EN'  'http://www.w3.org/Graphics/SVG/1.1/DTD/svg11.dtd'>
<svg xmlns="http://www.w3.org/2000/svg" xml:space="preserve" version="1.1" y="0px" x="0px" xmlns:xlink="http://www.w3.org/1999/xlink" viewBox="0 0 1000 1000" enable-background="new 0 0 1000 1000">
<metadata> Svg Vector Icons : http://www.onlinewebfonts.com/icon </metadata>
<g transform="translate(0 512) scale(0.1 -0.1)"><path d="m153 4967c-80.4-82.4-65.1-203 34.5-249 65.1-30.6 9560-30.6 9625.1 0 99.6 46 114.9 166.6 34.5 249l-55.5 55.5h-9583.1l-55.5-55.5z"/><path d="m7181.3 3990.4c-70.9-72.8-74.7-157-7.7-222.1 44-46 57.5-47.9 277.7-47.9s233.6 1.9 277.7 47.9c67 65.1 63.2 149.4-7.7 222.1-55.5 55.5-59.4 55.5-270 55.5-210.7 0-214.5 0-270-55.5z"/><path d="m8198.2 4021c-151.3-76.6-101.5-300.7 67-300.7 172.4 0 226 222.1 72.8 302.6-51.8 28.7-80.5 28.7-139.8-1.9z"/><path d="m8822.5 4003.8c-76.6-67-82.3-149.4-21.1-222.1l51.7-61.3h302.6c166.6 0 317.9 5.7 335.1 11.5 36.4 15.3 86.2 105.3 86.2 160.9 0 23-24.9 67-55.5 97.7l-55.5 55.5h-298.8c-279.6-0.1-298.8-2-344.7-42.2z"/><path d="m7173.6 3174.5c-67-65.1-63.2-149.4 7.7-222.1l55.5-55.5h693.3c725.8 0 781.3 5.7 812 86.2 24.9 67 11.5 145.5-36.4 191.5l-46 47.9h-1440.2l-45.9-48z"/><path d="m9299.3 3174.5c-103.4-103.4-24.9-277.7 124.5-277.7 51.7 0 153.2 99.6 153.2 151.3 0 149.4-176.2 229.8-277.7 126.4z"/><path d="m3525.4 1182.9v-737.3h1302.2v1474.6h-1302.2v-737.3z"/><path d="m6800.2-119.4v-1388.4h1302.2v2776.8h-1302.2v-1388.4z"/><path d="m5172.4-119.4v-737.3h1302.2l-3.8 733.5-5.7 731.6-645.4 5.7-647.3 3.8v-737.3z"/><path d="m3525.4-2168.5v-2288.5h-325.6v1149h-1302.2v-1149h-325.6v1953.4h-1302.2v-1932.4l-65.1-30.6c-114.9-55.5-139.8-172.3-51.7-260.4l55.5-55.5h9583l55.5 55.5c88.1 88.1 63.2 204.9-51.7 260.4l-65.1 30.6v802.5h-1302.2v-823.5h-325.6v2623.6h-1302.2v-2623.6h-325.6v3274.8h-1302.2l-3.8-1631.6-5.7-1633.6h-325.7l-5.7 2284.7-3.9 2282.7h-1302.2v-2288.5z"/><path d="m269.8-1431.2v-727.7h1302.2v1455.4h-1302.2v-727.7z"/><path d="m1897.6-2245.1v-737.3h1302.2v1474.6h-1302.2v-737.3z"/><path d="m8441.4-2172.3c-7.7-5.7-13.4-264.3-13.4-574.5v-561.2h1302.2v1149h-637.7c-352.4 0.1-645.4-5.7-651.1-13.3z"/></g>
</svg>
