<?xml version="1.0" encoding="UTF-8" standalone="no"?>
<!-- Svg Vector Icons : http://www.onlinewebfonts.com/icon -->
<!DOCTYPE svg  PUBLIC '-//W3C//DTD SVG 1.1//EN'  'http://www.w3.org/Graphics/SVG/1.1/DTD/svg11.dtd'>
<svg xmlns="http://www.w3.org/2000/svg" xml:space="preserve" version="1.1" y="0px" x="0px" xmlns:xlink="http://www.w3.org/1999/xlink" viewBox="0 0 1000 1000" enable-background="new 0 0 1000 1000">
<metadata> Svg Vector Icons : http://www.onlinewebfonts.com/icon </metadata>
<g transform="translate(0 511) scale(0.1 -0.1)"><path d="m100 110v-4900h9800v9800h-9800v-4900zm9391.7 3981.2v-510.4h-8983.4v1020.8h8983.4v-510.4zm0-4695.8v-3777.1h-8983.4v7554.2h8983.4v-3777.1z"/><path d="m916.7 3989.2v-204.2h408.3v408.4h-408.3v-204.2z"/><path d="m1733.3 3989.2v-204.2h408.4v408.4h-408.4v-204.2z"/><path d="m2550 3989.2v-204.2h408.4v408.4h-408.4v-204.2z"/><path d="m1529.2 1335v-204.2h6941.6v408.4h-6941.6v-204.2z"/><path d="m1529.2 110v-204.2h6941.6v408.4h-6941.6v-204.2z"/><path d="m1733.3-2340v-1429.2h6533.4v2858.4h-6533.4v-1429.2zm6125 0v-1020.8h-5716.6v2041.6h5716.6v-1020.8z"/></g>
</svg>
