<?xml version="1.0" encoding="UTF-8" standalone="no"?>
<!-- Svg Vector Icons : http://www.onlinewebfonts.com/icon -->
<!DOCTYPE svg  PUBLIC '-//W3C//DTD SVG 1.1//EN'  'http://www.w3.org/Graphics/SVG/1.1/DTD/svg11.dtd'>
<svg xmlns="http://www.w3.org/2000/svg" xml:space="preserve" version="1.1" y="0px" x="0px" xmlns:xlink="http://www.w3.org/1999/xlink" viewBox="0 0 1000 1000" enable-background="new 0 0 1000 1000">
<metadata> Svg Vector Icons : http://www.onlinewebfonts.com/icon </metadata>
<path d="m990 938.3c0 7.2-8.2 13-18.4 13h-943.2c-10.1 0-18.4-5.8-18.4-13v-34.6c0-7.2 8.2-13 18.4-13h943.2c10.2 0 18.4 5.8 18.4 13v34.6z"/><path d="m140.1 854.2c0 5.8-2.9 10.4-6.4 10.4h-47.7c-3.5 0-6.4-4.7-6.4-10.4v-180.8c0-5.8 2.8-10.4 6.4-10.4h47.8c3.5 0 6.4 4.7 6.4 10.4v180.8z"/><path d="m389 849c0 8.6-2.9 15.7-6.4 15.7h-47.8c-3.5 0-6.4-7-6.4-15.7v-271.3c0-8.6 2.9-15.6 6.4-15.6h47.8c3.5 0 6.4 7 6.4 15.6v271.3z"/><path d="m652.5 850.2c0 11.5-2.9 14.5-6.4 14.5h-47.8c-3.5 0-6.4-3-6.4-14.5v-374.5c0-11.5 2.8-14.5 6.4-14.5h47.8c3.5 0 6.4 3 6.4 14.5v374.5z"/><path d="m922.7 847.5c0 17.3-2.8 17.2-6.4 17.2h-47.8c-3.5 0-6.4 0.1-6.4-17.2v-570.8c0-17.3 2.9-17.2 6.4-17.2h47.8c3.5 0 6.4-0.1 6.4 17.2v570.8z"/><path d="m904.8 159.6l-109.8-110.8-125.1 110.8h96.4c-46 99.9-188.9 342.6-746 400.2 0 0 623.3 14.3 798.1-400.2h86.4z"/>
</svg>
