<?xml version="1.0" encoding="UTF-8" standalone="no"?>
<!-- Svg Vector Icons : http://www.onlinewebfonts.com/icon -->
<!DOCTYPE svg  PUBLIC '-//W3C//DTD SVG 1.1//EN'  'http://www.w3.org/Graphics/SVG/1.1/DTD/svg11.dtd'>
<svg xmlns="http://www.w3.org/2000/svg" xml:space="preserve" version="1.1" y="0px" x="0px" xmlns:xlink="http://www.w3.org/1999/xlink" viewBox="0 0 1000 1000" enable-background="new 0 0 1000 1000">
<metadata> Svg Vector Icons : http://www.onlinewebfonts.com/icon </metadata>
<g transform="translate(0 511) scale(0.1 -0.1)"><path d="m4453.4 4597.1c-35.7-4.8-121.5-45.3-190.6-85.8-152.5-90.5-269.2-250.2-305-421.7-16.7-73.9-26.2-421.7-26.2-869.6v-750.5h-83.4c-185.8 0-324-54.8-743.4-295.4-2089.4-1200.8-2818.4-1627.3-2885.1-1691.6-42.9-40.5-88.2-112-102.5-157.3-33.4-114.3-14.3-1098.3 23.8-1219.9 73.9-231.1-19.1-173.9 2918.6-1867.9 2756.6-1589.2 2830.5-1629.7 3047.3-1629.7 240.6 0 295.4 28.6 3252.2 1741.7 340.7 200.1 421.7 297.8 493.2 598 38.1 164.4 47.7 824.3 14.3 1026.9-23.8 145.4-100 224-347.8 366.9-104.9 59.6-569.5 328.8-1029.3 595.7l-841 486-347.9-7.2-347.9-7.1 693.3-393.1c381.2-216.8 690.9-397.9 690.9-405s-764.8-455-1701.1-993.5l-1698.8-984-676.7 388.3c-371.7 214.4-1188.9 681.4-1817.9 1038.8-629 359.8-1155.5 664.7-1172.2 679-21.4 19.1 307.4 219.2 1293.7 788.6 726.7 419.3 1331.8 767.2 1343.7 769.6 14.3 4.8 23.8-197.7 23.8-548 0-328.8 11.9-593.2 26.2-650.4 54.8-200.1 276.4-326.4 481.3-274 85.8 21.5 164.4 90.5 576.6 512.3l476.5 488.4h3907.4l119.1 57.2c66.7 28.6 159.6 100.1 209.7 157.3 181.1 197.7 171.5 112 171.5 1670.2v1393.8l-71.5 140.6c-45.3 88.2-109.6 171.5-173.9 219.2-204.9 157.2-95.3 150.1-2742.3 147.7-1317.4-2.6-2425.2-9.7-2458.6-14.5zm4953.3-402.6c126.3-88.1 123.9-71.5 123.9-1486.7 0-1443.8 4.8-1398.6-142.9-1486.7-59.6-33.4-257.3-38.1-2065.7-38.1h-1999l-483.6-500.3c-266.9-276.4-493.2-495.6-505.1-486-11.9 7.1-21.4 795.8-21.4 1917.9 0 1644 4.8 1915.6 35.7 1975.1 78.6 152.5-100.1 143 2573.1 143 2165.8-0.1 2437.4-4.9 2485-38.2zm-5475.1-2268.2v-183.5l-326.4-190.6c-181.1-102.4-872-502.7-1539.1-886.3l-1207.9-698.1-193 109.6c-104.8 59.6-185.9 121.5-181.1 135.8s131 97.7 281.1 185.8c1917.9 1110.3 2897.2 1667.8 2959.1 1686.8 42.9 11.9 104.8 23.8 142.9 23.8l64.3 2.4v-185.7zm-807.6-3666.8c1446.2-833.9 2666.1-1532 2713.7-1548.7 45.3-14.3 128.7-28.6 185.8-31h100.1v-690.8h-81c-88.2 0 54.8-81-3397.5 1913.2-1543.9 891-2096.7 1222.2-2125.3 1272.3-33.3 52.4-42.8 121.4-42.8 335.9 0 145.3 4.8 266.8 9.5 266.8 4.8 0 1193.6-683.8 2637.5-1517.7zm5987.3 915c207.3-121.5 376.4-231.1 376.4-243-2.4-26.2-2901.9-1710.7-3144.9-1827.4-228.8-109.6-321.7-92.9-695.7 121.5-164.4 95.3-305 181.1-314.5 188.2-11.9 14.3 3352.2 1979.9 3388 1979.9 7.1 0 183.4-97.8 390.7-219.2z"/><path d="m5051.4 3422.5v-190.6h3669.2v381.2h-3669.2v-190.6z"/><path d="m5051.4 2243.2v-178.7h3669.2v357.4h-3669.2v-178.7z"/><path d="m7300.6-1702.3c-266.8-76.2-147.7-331.2 154.9-331.2 231.1 0 378.8 119.1 295.4 238.3-73.9 104.8-271.6 145.3-450.3 92.9z"/></g>
</svg>
