<?xml version="1.0" encoding="UTF-8" standalone="no"?>
<!-- Svg Vector Icons : http://www.onlinewebfonts.com/icon -->
<!DOCTYPE svg  PUBLIC '-//W3C//DTD SVG 1.1//EN'  'http://www.w3.org/Graphics/SVG/1.1/DTD/svg11.dtd'>
<svg xmlns="http://www.w3.org/2000/svg" xml:space="preserve" version="1.1" y="0px" x="0px" xmlns:xlink="http://www.w3.org/1999/xlink" viewBox="0 0 1000 1000" enable-background="new 0 0 1000 1000">
<metadata> Svg Vector Icons : http://www.onlinewebfonts.com/icon </metadata>
<g transform="translate(0 511) scale(0.1 -0.1)"><path d="m1429.8 4219.9c-241.5-57.4-475.8-251-580.9-482.9l-69.3-148.2-12-2044-12-2044-327.5-404c-332.3-406.4-361-461.4-306-566.6 26.3-45.4 102.8-45.4 4781.4-45.4h4757.4v-143.4h-4707.2c-3002.7 0-4731.1-9.6-4769.4-23.9-78.9-28.7-88.5-153-16.7-191.3 31.1-16.7 1580.2-23.9 4836.3-23.9 4296 0 4795.7 4.8 4843.5 38.3s52.6 55 52.6 255.8c0 260.6 9.6 246.3-392.1 733.9l-265.4 322.7-12 2067.9-12 2067.9-76.5 157.8c-93.2 188.9-243.8 334.7-432.7 423.1l-136.3 64.6-3526.2 4.8c-2008.1-0.1-3564.4-7.3-3617-19.2zm7203.1-258.2c145.8-76.5 231.9-160.2 306-301.2l64.6-119.5 7.2-2003.4 7.2-2001-3748.6 4.8-3748.6 7.2v3872.8l3473.7 7.2 3471.3 4.8v-1357.9c0-1188.2 4.8-1362.7 38.2-1410.5 45.4-66.9 117.1-66.9 162.6 0 33.4 47.8 38.2 219.9 38.2 1408.1 0 927.6-7.2 1377-26.3 1429.6-55 155.4 191.3 145.8-3676.9 145.8-2180.3 0-3535.8-9.6-3574.1-23.9-138.7-52.6-133.9 14.3-133.9-2127.7v-1960.4h-310.7v1955.6c0 2120.5-2.4 2091.8 129.1 2264 90.9 119.5 217.6 208 344.3 241.5 88.5 23.9 843.9 28.7 3590.8 26.3l3478.4-4.8 107.5-57.4zm595.3-4834c83.7-105.2 193.6-243.8 246.2-308.4l95.6-119.6h-9184.9l255.8 310.8 253.4 310.8 4090.5-2.4h4090.4l153-191.2z"/><path d="m7860.7-2450.1c-741.1-174.5-851.1-1181-165-1503.7 234.3-110 657.4-78.9 1080.6 78.9 516.4 196.1 860.6 585.7 973 1097.3 43 203.2 26.3 258.2-76.5 258.2-74.1 0-98-35.9-141.1-222.3-59.8-253.4-150.6-416-337.1-604.8-274.9-279.7-681.3-439.9-1126-447.1-203.2-4.8-224.7 0-332.3 66.9-74.1 45.4-145.8 117.1-191.2 188.9-64.6 107.6-71.7 138.7-71.7 315.6 0 179.3 7.2 205.6 71.7 298.8 174.5 246.2 406.4 313.2 755.4 215.2 351.4-98 853.5-124.3 941.9-50.2 45.4 38.3 45.4 107.6-2.4 153-28.7 31.1-93.3 38.3-306 38.3-217.5 0-320.3 14.4-554.6 71.7-296.3 74-368.1 81.1-518.7 45.3z"/><path d="m3349.5-2830.2c-3208.3-71.7-3007.5-57.4-3110.3-222.3-38.3-59.8-45.4-105.2-38.3-205.6 7.2-112.4 21.5-141.1 93.2-208 59.8-55 117.1-81.3 191.3-90.9 93.2-12 5916.9-136.3 6275.5-133.9 131.5 0 157.8 9.6 231.9 71.7 222.3 196 215.2 607.2-14.4 800.9-85.9 74.2 217.7 74.2-3628.9-11.9zm3538.2-220c26.3-45.4 47.8-121.9 47.8-174.5s-21.5-129.1-47.8-172.1c-40.7-66.9-59.8-78.9-136.3-78.9-50.2 2.4-1482.2 33.5-3182 69.3-2326.1 52.6-3098.3 76.5-3124.6 98-43 35.9-45.4 95.6-4.8 150.6 26.3 38.2 270.2 47.8 3005.1 110 1637.6 38.3 3069.6 69.4 3186.8 71.7l208 2.4 47.8-76.5z"/></g>
</svg>
