<?xml version="1.0" encoding="UTF-8" standalone="no"?>
<!-- Svg Vector Icons : http://www.onlinewebfonts.com/icon -->
<!DOCTYPE svg  PUBLIC '-//W3C//DTD SVG 1.1//EN'  'http://www.w3.org/Graphics/SVG/1.1/DTD/svg11.dtd'>
<svg xmlns="http://www.w3.org/2000/svg" xml:space="preserve" version="1.1" y="0px" x="0px" xmlns:xlink="http://www.w3.org/1999/xlink" viewBox="0 0 1000 1000" enable-background="new 0 0 1000 1000">
<metadata> Svg Vector Icons : http://www.onlinewebfonts.com/icon </metadata>
<path d="m634.4 453.1c-21.5-56.7-76.2-82.1-97.7-89.9l-48.8-115.2c-5.9-13.7-19.5-25.4-33.2-27.4-15.6-3.9-31.3 0-43 11.7l-293 263.7-70.3 39.1c-27.4 15.6-43 46.9-37.1 78.1l7.8 46.9c5.9 31.3 29.3 52.7 58.6 60.6l72.3 228.6 134.8-35.2-58.6-193.4 357.4 31.3c15.6 2 29.3-3.9 39.1-15.6s13.7-25.4 11.7-41l-19.5-109.4c13.7-21.5 39.1-76.2 19.5-132.9zm-37.1 246.2c0 3.9-2 5.9-2 7.8 0 2-3.9 3.9-7.8 2l-369.2-31.3c-9.8 0-19.5 3.9-27.4 11.7-5.9 7.8-7.8 19.5-5.9 29.3l50.8 166.1-60.6 15.6-70.2-220.8h-13.7c-17.6 0-31.3-11.7-35.2-29.3l-7.8-46.9c-2-15.6 3.9-29.3 17.6-37.1l74.2-39.1 297-269.6c2-2 3.9-2 5.9-2h2c2 0 3.9 2 5.9 5.9l56.7 130.9 9.8 2s62.5 17.6 82.1 68.4-17.6 101.6-17.6 101.6l-3.9 5.9 19.3 128.9z"/><path d="m757.5 50.7l-58.6 101.6-54.7 7.8-21.5 109.4 41-82.1 54.7-7.8 39.1-128.9z"/><path d="m820 406.2l99.6-89.9-101.5 56.7-52.7-21.5-74.2 80.1 76.2-46.9 52.6 21.5z"/><path d="m874.7 603.5l-27.4-48.8-109.3 19.5 89.9 9.8 29.3 48.8 132.8-11.7-115.3-17.6z"/>
</svg>
