<?xml version="1.0" encoding="UTF-8" standalone="no"?>
<!-- Svg Vector Icons : http://www.onlinewebfonts.com/icon -->
<!DOCTYPE svg  PUBLIC '-//W3C//DTD SVG 1.1//EN'  'http://www.w3.org/Graphics/SVG/1.1/DTD/svg11.dtd'>
<svg xmlns="http://www.w3.org/2000/svg" xml:space="preserve" version="1.1" y="0px" x="0px" xmlns:xlink="http://www.w3.org/1999/xlink" viewBox="0 0 1000 1000" enable-background="new 0 0 1000 1000">
<metadata> Svg Vector Icons : http://www.onlinewebfonts.com/icon </metadata>
<path d="m670.2 832.3c-5.1-3.1-9.5-7.2-13-12.3-1.6-2.3-3-4.8-4.1-7.3h-577.1v-568.7h783.3v371.4c16.7 1.5 30.8 12.5 36.6 27.5 5.2-2.9 11-4.6 17.1-5.2 4.1-0.4 8.2-0.1 12.2 0.7v-536.1c0-30.3-24.7-55-55-55h-805.2c-30.3 0-55 24.7-55 55v721.5c0 30.3 24.7 55 55 55h600.2c-4.7-9.5-5.8-20.2-3-30.5 1.5-5.9 4.3-11.3 8-16zm128.7-692.6c0-11.2 9.1-20.3 20.3-20.3h20.3c11.2 0 20.3 9.1 20.3 20.3v23c0 11.2-9.1 20.3-20.3 20.3h-20.3c-11.2 0-20.3-9.1-20.3-20.3v-23zm-94.5 0c0-11.2 9.1-20.3 20.3-20.3h20.3c11.2 0 20.3 9.1 20.3 20.3v23c0 11.2-9.1 20.3-20.3 20.3h-20.3c-11.2 0-20.3-9.1-20.3-20.3v-23zm-94.4 0c0-11.2 9.1-20.3 20.3-20.3h20.3c11.2 0 20.3 9.1 20.3 20.3v23c0 11.2-9.1 20.3-20.3 20.3h-20.3c-11.2 0-20.3-9.1-20.3-20.3v-23z"/><path d="m989.9 793.6l-6.1-34.6c-0.8-4.7-5.3-7.8-9.9-7l-30.8 5.4c-3.7-8.7-8.4-16.8-14-24.2l20.1-24c1.5-1.7 2.2-4 2-6.3s-1.3-4.4-3-5.8l-26.9-22.6c-1.7-1.5-4-2.2-6.3-2s-4.4 1.3-5.8 3l-20.2 24.1c-8.2-4.2-17.1-7.4-26.3-9.6v-31.3c0-4.7-3.8-8.6-8.6-8.6h-35.1c-4.7 0-8.6 3.8-8.6 8.6v31.3c-9.2 2.1-18.1 5.4-26.3 9.6l-20.1-23.9c-3-3.6-8.4-4.1-12.1-1.1l-26.9 22.6c-1.7 1.5-2.8 3.6-3 5.8-0.2 2.3 0.5 4.5 2 6.3l20.1 24c-5.6 7.4-10.3 15.6-14 24.2l-30.8-5.4c-4.7-0.8-9.1 2.3-9.9 7l-6.1 34.6c-0.4 2.2 0.1 4.5 1.4 6.4s3.3 3.1 5.5 3.5l30.8 5.4c0.5 9.5 2.2 18.8 4.8 27.6l-27.1 15.6c-2 1.1-3.4 3-4 5.2s-0.3 4.5 0.9 6.5l17.6 30.4c1.1 2 3 3.4 5.2 4 0.7 0.2 1.5 0.3 2.2 0.3 1.5 0 3-0.4 4.3-1.1l27.1-15.6c6.4 6.8 13.6 12.9 21.4 18l-10.7 29.4c-0.8 2.1-0.7 4.5 0.3 6.6s2.7 3.7 4.8 4.4l33 12c0.9 0.3 1.9 0.5 2.9 0.5 1.2 0 2.5-0.3 3.6-0.8 2.1-1 3.6-2.7 4.4-4.8l10.7-29.4c4.6 0.6 9.3 0.8 14 0.8s9.4-0.3 14-0.8l10.7 29.4c0.8 2.1 2.4 3.9 4.4 4.8 1.1 0.5 2.4 0.8 3.6 0.8 1 0 2-0.2 2.9-0.5l33-12c2.1-0.8 3.9-2.4 4.8-4.4 1-2.1 1.1-4.4 0.3-6.6l-10.7-29.4c7.9-5.1 15-11.2 21.4-18l27.1 15.6c1.3 0.8 2.8 1.1 4.3 1.1 0.7 0 1.5-0.1 2.2-0.3 2.2-0.6 4.1-2 5.2-4l17.6-30.4c1.1-2 1.4-4.3 0.9-6.5-0.6-2.2-2-4.1-4-5.2l-27.1-15.6c2.7-8.8 4.3-18 4.8-27.6l30.8-5.4c2.2-0.4 4.2-1.7 5.5-3.5 1.7-2 2.2-4.3 1.8-6.5zm-153.3 55c-26 0-47.1-21.1-47.1-47.1s21.1-47.1 47.1-47.1c26 0 47.1 21.1 47.1 47.1s-21.1 47.1-47.1 47.1z"/><path d="m394.4 559.3c0-11.1-6.5-21.3-16.6-25.9l-92.1-42.8 92.1-42.8c10.1-4.7 16.6-14.9 16.6-25.9v-0.7c0-9.8-4.9-18.8-13.2-24.1-4.6-2.9-9.9-4.5-15.4-4.5-4.1 0-8.3 0.9-12 2.6l-147.2 68.5c-10.1 4.7-16.6 14.9-16.6 25.9v2c0 11.1 6.5 21.2 16.6 25.9l147.1 68.5c3.8 1.8 7.9 2.7 12 2.7 5.5 0 10.8-1.5 15.4-4.5 8.3-5.3 13.2-14.3 13.2-24.1l0.1-0.8z"/><path d="m539.6 322.7c-5.4-7.4-14-11.7-23.1-11.7h-0.7c-12.5 0-23.4 8-27.3 19.9l-97 300.5c-2.8 8.7-1.2 18.2 4.2 25.6 5.4 7.3 14 11.7 23.1 11.7h0.7c12.5 0 23.4-8 27.2-19.9l97-300.5c2.8-8.6 1.3-18.2-4.1-25.6z"/><path d="m728.8 463.6l-147.2-68.5c-3.7-1.7-7.9-2.6-12-2.6-5.5 0-10.8 1.5-15.4 4.5-8.3 5.3-13.2 14.3-13.2 24.1v0.7c0 11.1 6.5 21.3 16.6 26l92.1 42.8-92.1 42.8c-10.1 4.7-16.6 14.9-16.6 25.9v0.7c0 9.8 4.9 18.8 13.2 24.1 4.6 2.9 9.9 4.5 15.4 4.5 4.2 0 8.2-0.9 12.1-2.7l147.2-68.5c10.1-4.7 16.5-14.9 16.5-25.9v-2c-0.1-11-6.6-21.2-16.6-25.9z"/>
</svg>
